<?xml version="1.0" encoding="UTF-8"?>
<svg width="110px" height="24px" viewBox="0 0 110 24" version="1.1" xmlns="http://www.w3.org/2000/svg" xmlns:xlink="http://www.w3.org/1999/xlink">
    <!-- Generator: Sketch 55.2 (78181) - https://sketchapp.com -->
    <title>Group 44</title>
    <desc>Created with Sketch.</desc>
    <defs>
        <polygon id="path-1" points="0.0230794521 0.298850575 19.5444493 0.298850575 19.5444493 19.862069 0.0230794521 19.862069"></polygon>
    </defs>
    <g id="🔷-Symbols" stroke="none" stroke-width="1" fill="none" fill-rule="evenodd">
        <g id="NAV/FOOTER/QUEBEC" transform="translate(-665.000000, -85.000000)">
            <g id="footer">
                <g id="Group-44" transform="translate(665.000000, 85.000000)">
                    <path d="M28.4558575,17.2890115 L28.4558575,8.80643678 L28.3918712,8.80643678 C28.0908027,9.08303448 26.9678986,9.10657471 26.4915151,9.10657471 L25.6682,9.10657471 L25.6682,9.17572414 C26.621337,9.75650575 26.4881863,10.6146207 26.4881863,11.6857011 L26.4915151,15.2748506 C26.4915151,17.0708966 24.7176521,18.3306667 23.2877616,18.3306667 C21.4084877,18.3306667 20.6247479,16.999908 20.6247479,14.8551724 L20.6247479,8.80643678 L20.5615014,8.80643678 C20.2571041,9.08303448 19.1290219,9.10657471 18.6544877,9.10657471 L17.8370904,9.10657471 L17.8370904,9.17572414 C18.7902274,9.75650575 18.6578164,10.6146207 18.6578164,11.6857011 L18.6578164,15.2630805 C18.6578164,18.5373793 20.0862274,20.0932414 22.641611,20.0932414 C24.1543507,20.0932414 25.7103644,19.5602759 26.4915151,18.2828506 L26.4915151,19.8313563 L29.2769534,19.8313563 L29.2769534,19.7603678 C28.3286247,19.2266667 28.4558575,18.3622989 28.4558575,17.2890115" id="Fill-1" fill="#000000"></path>
                    <path d="M40.6398479,14.1058207 C40.7263959,11.1110621 38.7110123,8.85267126 35.7676425,8.85267126 C32.5413274,8.85267126 30.3558068,11.1824184 30.3558068,14.4103724 C30.3558068,17.6629701 32.887889,20.1387402 36.5676562,20.1387402 C37.5873685,20.1387402 38.6244644,19.9783724 39.5587384,19.5667862 L40.6398479,17.3823264 L40.5758616,17.3823264 C39.5772315,18.2238897 38.323026,18.6229701 37.0255466,18.6229701 C34.5792726,18.6229701 32.7369849,16.9600736 32.6914918,14.1058207 L40.6398479,14.1058207 Z M32.7791493,12.7540966 C33.0399027,11.2968092 34.1213822,10.3702805 35.5716151,10.3702805 C37.1339164,10.3702805 38.1295877,11.1346023 38.3677795,12.7540966 L32.7791493,12.7540966 Z" id="Fill-3" fill="#000000"></path>
                    <path d="M42.3562342,3.87770115 C42.8770014,3.87770115 43.9351795,3.84570115 44.2528918,3.53305747 L44.3168781,3.53305747 L44.3168781,18.2254713 C44.9016315,18.3858391 45.5011795,18.5013333 46.1036863,18.5013333 C48.4704397,18.5013333 49.8256178,16.8575632 49.8256178,14.5631264 C49.8256178,12.3131954 48.7726178,10.5782069 46.5974534,10.5782069 C45.9098781,10.5782069 45.3724671,10.763954 44.7932616,11.0876322 L45.9531521,9.10914943 C46.4469192,8.92082759 46.9625082,8.85204598 47.4803164,8.85204598 C49.9332479,8.85204598 52.0211247,10.9684598 52.0211247,14.1456552 C52.0211247,17.7855632 49.5452616,20.1351724 45.6302616,20.1351724 C44.1670836,20.1351724 42.7623438,19.8784368 41.703426,19.7169655 L41.703426,19.6467126 C42.4183712,19.3186207 42.3521658,18.5491494 42.3521658,17.7855632 L42.3521658,7.10381609 C42.3521658,6.03236782 42.4830973,4.53167816 41.5528918,3.94685057 L41.5528918,3.87770115 L42.3562342,3.87770115 Z" id="Fill-5" fill="#000000"></path>
                    <path d="M63.721963,14.1058207 C63.8096205,11.1110621 61.7975658,8.85267126 58.8508671,8.85267126 C55.6267712,8.85267126 53.4397712,11.1824184 53.4397712,14.4103724 C53.4397712,17.6629701 55.9707438,20.1387402 59.6534699,20.1387402 C60.6713329,20.1387402 61.7102781,19.9783724 62.6412233,19.5667862 L63.721963,17.3823264 L63.657237,17.3823264 C62.6634151,18.2238897 61.405511,18.6229701 60.1080315,18.6229701 C57.6599082,18.6229701 55.8194699,16.9600736 55.7776753,14.1058207 L63.7223329,14.1058207 L63.721963,14.1058207 Z M55.864963,12.7540966 C56.1238671,11.2968092 57.2075658,10.3702805 58.6585384,10.3702805 C60.2167712,10.3702805 61.2113329,11.1346023 61.4491548,12.7540966 L55.864963,12.7540966 Z" id="Fill-7" fill="#000000"></path>
                    <path d="M73.4070479,11.5142253 L73.3430616,11.5142253 C72.7154041,10.7436506 71.6757192,10.3699494 70.7011301,10.3699494 C68.5988288,10.3699494 67.0871986,11.956708 67.0871986,14.1691218 C67.0871986,16.8493977 69.1858014,18.6226391 71.5884315,18.6226391 C72.6943219,18.6226391 73.9048836,18.1569839 74.7518699,17.4783632 L74.8151164,17.4783632 L73.6888836,19.680846 C72.7793904,20.0479264 71.7826096,20.1391448 70.8287329,20.1391448 C67.4951575,20.1391448 64.8902123,17.8060874 64.8902123,14.7771218 C64.8902123,10.7690299 67.7995548,8.85234023 71.0676644,8.85234023 C71.8473356,8.85234023 72.648089,8.94429425 73.4066781,9.12857011 L73.4066781,11.5142253 L73.4070479,11.5142253 Z" id="Fill-9" fill="#000000"></path>
                    <path d="M37.9390342,6.92906667 L37.9390342,4.59931954 C36.5183904,5.23085977 35.2020479,6.41302069 34.3228836,7.56502069 L34.3228836,8.47315862 C36.4299932,7.06037701 37.9390342,6.99343448 37.9390342,6.92906667" id="Fill-11" fill="#000000"></path>
                    <g id="Group-15" transform="translate(0.890411, 3.575099)">
                        <mask id="mask-2" fill="white">
                            <use xlink:href="#path-1"></use>
                        </mask>
                        <g id="Clip-14"></g>
                        <path d="M19.2419014,18.5278161 C16.8266959,18.9217471 14.5076548,18.1651494 12.0406685,15.3594483 C14.4236959,14.1706667 15.8979699,11.2086437 15.8979699,8.45737931 L15.8979699,8.1142069 C15.851737,3.40652874 12.2973534,0.298850575 8.05872329,0.298850575 C3.80973699,0.298850575 0.0556273973,3.53526437 0.0230794521,8.28009195 L0.0230794521,8.59862069 C0.0230794521,13.2154483 3.46835342,16.6398161 7.68849041,16.6398161 C8.29395616,16.6398161 8.87944932,16.5478621 9.46494247,16.4073563 C12.2300384,18.9846437 14.6959151,20.0807356 16.8241068,19.8262069 C17.8364219,19.7074023 18.902737,19.3050115 19.5444493,18.4766897 L19.2419014,18.5278161 Z M8.03505205,14.9622069 C4.76546301,14.9622069 2.49080548,11.2954483 2.49080548,8.17673563 L2.49080548,7.82804598 C2.53223014,4.80827586 4.49805205,1.97682759 7.92631233,1.97682759 C11.5376548,1.97682759 13.3965863,5.37213793 13.4276548,8.58721839 L13.4276548,8.9234023 C13.4276548,12.3510805 11.2842986,14.9622069 8.03505205,14.9622069 L8.03505205,14.9622069 Z" id="Fill-13" fill="#000000" mask="url(#mask-2)"></path>
                    </g>
                    <path d="M89.6918575,4.62429425 C89.5328164,5.12121379 89.2543096,5.28783448 89.1755288,5.28783448 C89.1755288,5.28783448 89.3038712,4.74236322 88.9081178,4.46208736 C88.5345562,4.2002023 88.0725973,4.35909885 87.8588164,4.6710069 C87.6579808,4.97077701 87.6258027,5.37721379 87.6258027,5.37721379 L88.3100493,5.37721379 L88.3100493,5.88001839 L86.9352685,5.88001839 C86.9352685,5.88001839 86.9700356,6.58916782 87.7227068,6.52001839 C87.7227068,6.52001839 87.6320904,7.0802023 86.9352685,6.78668506 C86.9352685,6.78668506 86.9700356,7.37555862 86.4921726,7.6676046 C86.0143096,7.37555862 86.0512959,6.78668506 86.0512959,6.78668506 C85.354474,7.0802023 85.2608986,6.52001839 85.2608986,6.52001839 C86.0143096,6.58916782 86.0512959,5.88001839 86.0512959,5.88001839 L84.6765151,5.88001839 L84.6765151,5.37721379 L85.3600219,5.37721379 C85.3600219,5.37721379 85.3285836,4.97077701 85.1258986,4.6710069 C84.9113781,4.35909885 84.4505288,4.2002023 84.0788164,4.46208736 C83.6815836,4.74236322 83.8114055,5.28783448 83.8114055,5.28783448 C83.7348438,5.28783448 83.4537479,5.12121379 83.2947068,4.62429425 C82.9969671,3.68011034 83.9349397,2.77050115 84.8862274,3.29611034 C85.5556795,3.66392644 85.832337,4.49629425 85.832337,5.37721379 L86.1977616,5.37721379 C86.185926,5.44415632 86.2817205,4.71882299 86.1389534,4.17776552 C86.0353918,3.80627126 85.9033507,3.41381149 85.6755151,2.94116782 C85.4754192,2.53068506 85.4025562,1.83882299 85.8234603,1.31836322 C86.1825973,0.868524138 86.3952685,0.618409195 86.4921726,0.440386207 C86.5887068,0.618409195 86.8032274,0.868524138 87.166063,1.31836322 C87.5840082,1.83882299 87.5100356,2.53068506 87.3099397,2.94116782 C87.0832137,3.41381149 86.9515425,3.80627126 86.8494603,4.17776552 C86.7048438,4.71882299 86.8010082,5.44415632 86.7895425,5.37721379 L87.1523781,5.37721379 C87.1523781,4.49629425 87.4308849,3.66392644 88.0977479,3.29611034 C89.0494055,2.77050115 89.9881178,3.68011034 89.6918575,4.62429425 L89.6918575,4.62429425 Z M79.9319123,8.02070805 L93.0524329,8.02070805 L93.0524329,0.0236505747 L79.9319123,0.0236505747 L79.9319123,8.02070805 Z" id="Fill-36" fill="#165797"></path>
                    <path d="M106.632952,4.62429425 C106.474651,5.12121379 106.195404,5.28783448 106.116993,5.28783448 C106.116993,5.28783448 106.244226,4.74236322 105.851432,4.46208736 C105.475281,4.2002023 105.015171,4.35909885 104.799171,4.6710069 C104.600555,4.97077701 104.567637,5.37721379 104.567637,5.37721379 L105.253363,5.37721379 L105.253363,5.88001839 L103.876363,5.88001839 C103.876363,5.88001839 103.91113,6.58916782 104.66787,6.52001839 C104.66787,6.52001839 104.575404,7.0802023 103.876363,6.78668506 C103.876363,6.78668506 103.91113,7.37555862 103.434747,7.6676046 C102.956144,7.37555862 102.992021,6.78668506 102.992021,6.78668506 C102.295568,7.0802023 102.203103,6.52001839 102.203103,6.52001839 C102.956144,6.58916782 102.992021,5.88001839 102.992021,5.88001839 L101.620938,5.88001839 L101.620938,5.37721379 L102.304445,5.37721379 C102.304445,5.37721379 102.272267,4.97077701 102.066993,4.6710069 C101.853212,4.35909885 101.391623,4.2002023 101.02213,4.46208736 C100.622678,4.74236322 100.754719,5.28783448 100.754719,5.28783448 C100.675938,5.28783448 100.394842,5.12121379 100.23913,4.62429425 C99.9376918,3.68011034 100.876774,2.77050115 101.829171,3.29611034 C102.499363,3.66392644 102.773432,4.49629425 102.773432,5.37721379 L103.139596,5.37721379 C103.130349,5.44415632 103.222815,4.71882299 103.080048,4.17776552 C102.976116,3.80627126 102.845185,3.41381149 102.61624,2.94116782 C102.416144,2.53068506 102.343651,1.83882299 102.764185,1.31836322 C103.124432,0.868524138 103.337842,0.618409195 103.434747,0.440386207 C103.527952,0.618409195 103.74913,0.868524138 104.106788,1.31836322 C104.522514,1.83882299 104.45113,2.53068506 104.251774,2.94116782 C104.027637,3.41381149 103.892267,3.80627126 103.790185,4.17776552 C103.645938,4.71882299 103.742842,5.44415632 103.733226,5.37721379 L104.096062,5.37721379 C104.096062,4.49629425 104.371979,3.66392644 105.037363,3.29611034 C105.98939,2.77050115 106.928103,3.68011034 106.632952,4.62429425 L106.632952,4.62429425 Z M96.8737466,8.02070805 L109.999815,8.02070805 L109.999815,0.0236505747 L96.8737466,0.0236505747 L96.8737466,8.02070805 Z" id="Fill-38" fill="#165797"></path>
                    <path d="M89.6918575,16.4283586 C89.5328164,16.9245425 89.2543096,17.0900598 89.1755288,17.0900598 C89.1755288,17.0900598 89.3038712,16.5471632 88.9081178,16.2683586 C88.5345562,16.0083126 88.0725973,16.1664736 87.8588164,16.4743356 C87.6579808,16.7744736 87.6258027,17.1812782 87.6258027,17.1812782 L88.3100493,17.1812782 L88.3100493,17.6837149 L86.9352685,17.6837149 C86.9352685,17.6837149 86.9700356,18.3932322 87.7227068,18.3262897 C87.7227068,18.3262897 87.6320904,18.8842667 86.9352685,18.5907494 C86.9352685,18.5907494 86.9700356,19.1770483 86.4921726,19.4713011 C86.0143096,19.1770483 86.0512959,18.5907494 86.0512959,18.5907494 C85.354474,18.8842667 85.2608986,18.3262897 85.2608986,18.3262897 C86.0143096,18.3932322 86.0512959,17.6837149 86.0512959,17.6837149 L84.6765151,17.6837149 L84.6765151,17.1812782 L85.3600219,17.1812782 C85.3600219,17.1812782 85.3285836,16.7744736 85.1258986,16.4743356 C84.9113781,16.1664736 84.4505288,16.0083126 84.0788164,16.2683586 C83.6815836,16.5471632 83.8114055,17.0900598 83.8114055,17.0900598 C83.7348438,17.0900598 83.4537479,16.9245425 83.2947068,16.4283586 C82.9969671,15.4849103 83.9349397,14.5745655 84.8862274,15.1001747 C85.5556795,15.4690943 85.832337,16.3003586 85.832337,17.1812782 L86.1977616,17.1812782 C86.185926,17.2482207 86.2817205,16.5228874 86.1389534,15.9851402 C86.0353918,15.6110713 85.9033507,15.2186115 85.6755151,14.7463356 C85.4754192,14.3354851 85.4025562,13.6428874 85.8234603,13.1257379 C86.1825973,12.6747954 86.3952685,12.4221057 86.4921726,12.2484966 C86.5887068,12.4221057 86.8032274,12.6747954 87.166063,13.1257379 C87.5840082,13.6428874 87.5100356,14.3354851 87.3099397,14.7463356 C87.0832137,15.2186115 86.9515425,15.6110713 86.8494603,15.9851402 C86.7048438,16.5228874 86.8010082,17.2482207 86.7895425,17.1812782 L87.1523781,17.1812782 C87.1523781,16.3003586 87.4308849,15.4690943 88.0977479,15.1001747 C89.0494055,14.5745655 89.9881178,15.4849103 89.6918575,16.4283586 L89.6918575,16.4283586 Z M79.9319123,19.8229333 L93.0524329,19.8229333 L93.0524329,11.8302897 L79.9319123,11.8302897 L79.9319123,19.8229333 Z" id="Fill-40" fill="#165797"></path>
                    <path d="M106.632952,16.4283586 C106.474651,16.9245425 106.195404,17.0900598 106.116993,17.0900598 C106.116993,17.0900598 106.244226,16.5471632 105.851432,16.2683586 C105.475281,16.0083126 105.015171,16.1664736 104.799171,16.4743356 C104.600555,16.7744736 104.567637,17.1812782 104.567637,17.1812782 L105.253363,17.1812782 L105.253363,17.6837149 L103.876363,17.6837149 C103.876363,17.6837149 103.91113,18.3932322 104.66787,18.3262897 C104.66787,18.3262897 104.575404,18.8842667 103.876363,18.5907494 C103.876363,18.5907494 103.91113,19.1770483 103.434747,19.4713011 C102.956144,19.1770483 102.992021,18.5907494 102.992021,18.5907494 C102.295568,18.8842667 102.203103,18.3262897 102.203103,18.3262897 C102.956144,18.3932322 102.992021,17.6837149 102.992021,17.6837149 L101.620938,17.6837149 L101.620938,17.1812782 L102.304445,17.1812782 C102.304445,17.1812782 102.272267,16.7744736 102.066993,16.4743356 C101.853212,16.1664736 101.391623,16.0083126 101.02213,16.2683586 C100.622678,16.5471632 100.754719,17.0900598 100.754719,17.0900598 C100.675938,17.0900598 100.394842,16.9245425 100.23913,16.4283586 C99.9376918,15.4849103 100.876774,14.5745655 101.829171,15.1001747 C102.499363,15.4690943 102.773432,16.3003586 102.773432,17.1812782 L103.139596,17.1812782 C103.130349,17.2482207 103.222815,16.5228874 103.080048,15.9851402 C102.976116,15.6110713 102.845185,15.2186115 102.61624,14.7463356 C102.416144,14.3354851 102.343651,13.6428874 102.764185,13.1257379 C103.124432,12.6747954 103.337842,12.4221057 103.434747,12.2484966 C103.527952,12.4221057 103.74913,12.6747954 104.106788,13.1257379 C104.522514,13.6428874 104.45113,14.3354851 104.251774,14.7463356 C104.027637,15.2186115 103.892267,15.6110713 103.790185,15.9851402 C103.645938,16.5228874 103.742842,17.2482207 103.733226,17.1812782 L104.096062,17.1812782 C104.096062,16.3003586 104.371979,15.4690943 105.037363,15.1001747 C105.98939,14.5745655 106.928103,15.4849103 106.632952,16.4283586 L106.632952,16.4283586 Z M96.8737466,19.8229333 L109.999815,19.8229333 L109.999815,11.8302897 L96.8737466,11.8302897 L96.8737466,19.8229333 Z" id="Fill-42" fill="#165797"></path>
                </g>
            </g>
        </g>
    </g>
</svg>