<?xml version="1.0" encoding="UTF-8"?>
<svg width="132px" height="27px" viewBox="0 0 132 27" version="1.1" xmlns="http://www.w3.org/2000/svg" xmlns:xlink="http://www.w3.org/1999/xlink">
    <!-- Generator: Sketch 55.2 (78181) - https://sketchapp.com -->
    <title>Group 44</title>
    <desc>Created with Sketch.</desc>
    <g id="🔷-Symbols" stroke="none" stroke-width="1" fill="none" fill-rule="evenodd">
        <g id="NAV/HEADER/PRENAV" transform="translate(-66.000000, -28.000000)" fill="#FFFFFF">
            <g id="Group">
                <g id="Group-2" transform="translate(66.000000, 28.000000)">
                    <g id="Group-44">
                        <path d="M35.2306831,18.3176586 C35.2306831,19.7062241 35.0698869,20.8245 36.2683795,21.5149759 L36.2683795,21.6068172 L32.7481581,21.6068172 L32.7481581,19.6034379 C31.7609443,21.2561069 29.7944628,21.945631 27.8826708,21.945631 C24.6531914,21.945631 22.8479736,19.9327345 22.8479736,15.6966103 L22.8479736,11.0683759 C22.8479736,9.68266552 23.0153138,8.57247931 21.8107446,7.8210931 L21.8107446,7.73163103 L22.8437667,7.73163103 C23.4434805,7.73163103 24.8691444,7.70117586 25.25384,7.34332759 L25.3337706,7.34332759 L25.3337706,15.1688793 C25.3337706,17.943631 26.3242565,19.6653 28.6992725,19.6653 C30.50636,19.6653 32.7481581,18.0354724 32.7481581,15.7118379 L32.7439512,11.0683759 C32.7439512,9.68266552 32.9122263,8.57247931 31.7076571,7.8210931 L31.7076571,7.73163103 L32.7481581,7.73163103 C33.350209,7.73163103 34.7693289,7.70117586 35.1498176,7.34332759 L35.2306831,7.34332759 L35.2306831,18.3176586 Z M50.6287421,14.1994055 L40.583654,14.1994055 C40.641148,17.8920952 42.9694209,20.0434676 46.0610082,20.0434676 C47.7007555,20.0434676 49.2858134,19.5271572 50.5478765,18.4383848 L50.6287421,18.4383848 L49.2624418,21.2645297 C48.0817116,21.7970193 46.7710356,22.0044952 45.4823289,22.0044952 C40.8318598,22.0044952 37.6318285,18.8014676 37.6318285,14.5934193 C37.6318285,10.4172538 40.3938771,7.40314345 44.471276,7.40314345 C48.1910904,7.40314345 50.7381209,10.3249366 50.6287421,14.1994055 Z M40.6944351,12.4506124 L47.7573146,12.4506124 C47.4562892,10.3553917 46.1979654,9.36655034 44.2235377,9.36655034 C42.3907415,9.36655034 41.0239738,10.5652469 40.6944351,12.4506124 Z M52.7979015,0.966775862 C53.4560441,0.966775862 54.7933636,0.925375862 55.1948867,0.520893103 L55.2757522,0.520893103 L55.2757522,19.5292034 C56.0147603,19.7366793 56.7724656,19.8861 57.5339104,19.8861 C60.5250002,19.8861 62.2376666,17.7594724 62.2376666,14.7910448 C62.2376666,11.8801966 60.9068911,9.63555517 58.1579306,9.63555517 C57.2889767,9.63555517 56.6097997,9.87586552 55.8778031,10.2946241 L57.3436661,7.73496207 C57.9676862,7.49132069 58.6192848,7.40233448 59.2736879,7.40233448 C62.373689,7.40233448 65.0123359,10.1404448 65.0123359,14.2509414 C65.0123359,18.9600724 61.8833541,21.9998793 56.935599,21.9998793 C55.0864427,21.9998793 53.3111405,21.6677276 51.9728861,21.4588241 L51.9728861,21.3679345 C52.8764299,20.9434655 52.7927597,19.9479621 52.7927597,18.9600724 L52.7927597,5.14056207 C52.7927597,3.75437586 52.9582302,1.81285862 51.7826418,1.05623793 L51.7826418,0.966775862 L52.7979015,0.966775862 Z M79.79979,14.1994055 L79.8002574,14.1994055 L69.7598437,14.1994055 C69.8126633,17.8920952 72.138599,20.0434676 75.2325236,20.0434676 C76.8722708,20.0434676 78.462003,19.5271572 79.7179896,18.4383848 L79.79979,18.4383848 L78.4339572,21.2645297 C77.2574338,21.7970193 75.9444207,22.0044952 74.6580511,22.0044952 C70.0038425,22.0044952 66.8052135,18.8014676 66.8052135,14.5934193 C66.8052135,10.4172538 69.5691319,7.40314345 73.6437263,7.40314345 C77.3677475,7.40314345 79.9105711,10.3249366 79.79979,14.1994055 Z M69.8701573,12.4506124 L76.9274277,12.4506124 C76.6268697,10.3553917 75.3699482,9.36655034 73.4006622,9.36655034 C71.5669312,9.36655034 70.1973589,10.5652469 69.8701573,12.4506124 Z M92.0397462,10.846529 L91.9588806,10.846529 C91.1656505,9.84959793 89.8517025,9.36612207 88.6200224,9.36612207 C85.9631457,9.36612207 84.0527559,11.418991 84.0527559,14.2813014 C84.0527559,17.7489083 86.7049583,20.0430393 89.7413889,20.0430393 C91.139007,20.0430393 92.668908,19.4405979 93.7393246,18.5626324 L93.8192552,18.5626324 L92.3959284,21.4120945 C91.2465161,21.8870048 89.98679,22.0050186 88.781286,22.0050186 C84.5683321,22.0050186 81.2762169,18.9866255 81.2762169,15.0679014 C81.2762169,9.88243241 84.9530277,7.40271517 89.0832463,7.40271517 C90.0685904,7.40271517 91.0805781,7.52168069 92.0392787,7.76008759 L92.0392787,10.846529 L92.0397462,10.846529 Z M47.2154688,4.91448 C47.2154688,4.99775586 45.3083511,5.08436276 42.6453978,6.91214897 L42.6453978,5.73724552 C43.7564808,4.24684552 45.4200671,2.71742483 47.2154688,1.90036966 L47.2154688,4.91448 Z M24.7114333,24.5456462 L25.0937917,24.4795014 C24.2827992,25.5511428 22.9351962,26.0717359 21.6558381,26.2254393 C18.9662412,26.5547359 15.84988,25.1366669 12.3553673,21.8023014 C11.6154243,21.9840807 10.8754814,22.1030462 10.1102971,22.1030462 C4.7769116,22.1030462 0.422793626,17.6727703 0.422793626,11.6997497 L0.422793626,11.2876531 C0.463927537,5.14903241 5.20835024,0.961922069 10.5781954,0.961922069 C15.9349524,0.961922069 20.4269625,4.98248069 20.4853913,11.0730393 L20.4853913,11.5170186 C20.4853913,15.0764669 18.6222121,18.9085841 15.6105554,20.4465703 C18.7283189,24.0764462 21.6591101,25.0552945 24.7114333,24.5456462 Z M10.5482798,19.9326393 C14.6546594,19.9326393 17.363421,16.5544945 17.363421,12.1199359 L17.363421,11.6849979 C17.3241568,7.52548759 14.9748495,3.13280483 10.4108551,3.13280483 C6.07823897,3.13280483 3.59384423,6.79599103 3.54149198,10.7028186 L3.54149198,11.1539359 C3.54149198,15.1887703 6.41619145,19.9326393 10.5482798,19.9326393 Z" id="Logo-Quebec"></path>
                        <path d="M110.11572,6.04046363 C110.419857,5.08412567 109.456185,4.16280748 108.479224,4.69518261 C107.794629,5.06773343 107.508717,5.91081594 107.508717,6.80307516 L107.136234,6.80307516 C107.148004,6.87087941 107.049283,6.13620919 107.197745,5.58818693 C107.302541,5.2119106 107.437713,4.81439887 107.670468,4.33567106 C107.875884,3.91990434 107.951824,3.21913624 107.522766,2.69197683 C107.150282,2.23634717 106.930058,1.98301261 106.830957,1.80269801 C106.731476,1.98301261 106.51315,2.23634717 106.144464,2.69197683 C105.712368,3.21913624 105.787169,3.91990434 105.992585,4.33567106 C106.226479,4.81439887 106.362031,5.2119106 106.468346,5.58818693 C106.614909,6.13620919 106.516567,6.87087941 106.528718,6.80307516 L106.153577,6.80307516 C106.153577,5.91081594 105.869563,5.06773343 105.182311,4.69518261 C104.205729,4.16280748 103.242816,5.08412567 103.548472,6.04046363 C103.711742,6.54377979 104.000312,6.71254531 104.07891,6.71254531 C104.07891,6.71254531 103.945636,6.16005244 104.353431,5.87616872 C104.735027,5.61091253 105.20813,5.77185449 105.428354,6.08777758 C105.636429,6.3914065 105.668703,6.80307516 105.668703,6.80307516 L104.967022,6.80307516 L104.967022,7.31235214 L106.378358,7.31235214 C106.378358,7.31235214 106.340388,8.03063013 105.566944,7.96059057 C105.566944,7.96059057 105.663007,8.52798548 106.378358,8.23068992 C106.378358,8.23068992 106.340388,8.82714379 106.830957,9.12294914 C107.321526,8.82714379 107.285834,8.23068992 107.285834,8.23068992 C108.001184,8.52798548 108.09421,7.96059057 108.09421,7.96059057 C107.321526,8.03063013 107.285834,7.31235214 107.285834,7.31235214 L108.69717,7.31235214 L108.69717,6.80307516 L107.99473,6.80307516 C107.99473,6.80307516 108.027763,6.3914065 108.233939,6.08777758 C108.453404,5.77185449 108.927646,5.61091253 109.311141,5.87616872 C109.717417,6.16005244 109.585662,6.71254531 109.585662,6.71254531 C109.666538,6.71254531 109.95245,6.54377979 110.11572,6.04046363 Z M100.096263,9.48059793 L100.096263,1.38059793 L113.565651,1.38059793 L113.565651,9.48059793 L100.096263,9.48059793 Z M128.069909,6.04046363 C128.37278,5.08412567 127.409515,4.16280748 126.432587,4.69518261 C125.7498,5.06773343 125.466665,5.91081594 125.466665,6.80307516 L125.094339,6.80307516 C125.104207,6.87087941 125.004769,6.13620919 125.152788,5.58818693 C125.25754,5.2119106 125.396451,4.81439887 125.62645,4.33567106 C125.831021,3.91990434 125.904271,3.21913624 125.477672,2.69197683 C125.11066,2.23634717 124.883696,1.98301261 124.788053,1.80269801 C124.688614,1.98301261 124.469622,2.23634717 124.099953,2.69197683 C123.668419,3.21913624 123.742808,3.91990434 123.948138,4.33567106 C124.183071,4.81439887 124.317427,5.2119106 124.424077,5.58818693 C124.570578,6.13620919 124.475694,6.87087941 124.485183,6.80307516 L124.109441,6.80307516 C124.109441,5.91081594 123.828204,5.06773343 123.140483,4.69518261 C122.163175,4.16280748 121.199531,5.08412567 121.508854,6.04046363 C121.668639,6.54377979 121.957087,6.71254531 122.037928,6.71254531 C122.037928,6.71254531 121.902433,6.16005244 122.312333,5.87616872 C122.691491,5.61091253 123.165153,5.77185449 123.384525,6.08777758 C123.595168,6.3914065 123.628188,6.80307516 123.628188,6.80307516 L122.926804,6.80307516 L122.926804,7.31235214 L124.333747,7.31235214 C124.333747,7.31235214 124.296932,8.03063013 123.524195,7.96059057 C123.524195,7.96059057 123.619079,8.52798548 124.333747,8.23068992 C124.333747,8.23068992 124.296932,8.82714379 124.788053,9.12294914 C125.276897,8.82714379 125.24122,8.23068992 125.24122,8.23068992 C125.958545,8.52798548 126.053429,7.96059057 126.053429,7.96059057 C125.276897,8.03063013 125.24122,7.31235214 125.24122,7.31235214 L126.654236,7.31235214 L126.654236,6.80307516 L125.950575,6.80307516 C125.950575,6.80307516 125.984354,6.3914065 126.188165,6.08777758 C126.409815,5.77185449 126.881959,5.61091253 127.267948,5.87616872 C127.671016,6.16005244 127.540455,6.71254531 127.540455,6.71254531 C127.620917,6.71254531 127.907468,6.54377979 128.069909,6.04046363 Z M118.055447,9.48059793 L118.055447,1.38059793 L131.524834,1.38059793 L131.524834,9.48059793 L118.055447,9.48059793 Z M110.11572,18.6404277 C110.419857,17.6843071 109.456185,16.7617346 108.479224,17.2944037 C107.794629,17.6682786 107.508717,18.5107084 107.508717,19.4034603 L107.136234,19.4034603 C107.148004,19.471302 107.049283,18.7362261 107.197745,18.191256 C107.302541,17.8121626 107.437713,17.4144313 107.670468,16.9358119 C107.875884,16.5194428 107.951824,15.8175422 107.522766,15.2934465 C107.150282,14.836447 106.930058,14.5803632 106.830957,14.4044221 C106.731476,14.5803632 106.51315,14.836447 106.144464,15.2934465 C105.712368,15.8175422 105.787169,16.5194428 105.992585,16.9358119 C106.226479,17.4144313 106.362031,17.8121626 106.468346,18.191256 C106.614909,18.7362261 106.516567,19.471302 106.528718,19.4034603 L106.153577,19.4034603 C106.153577,18.5107084 105.869563,17.6682786 105.182311,17.2944037 C104.205729,16.7617346 103.242816,17.6843071 103.548472,18.6404277 C103.711742,19.1432763 104.000312,19.3110167 104.07891,19.3110167 C104.07891,19.3110167 103.945636,18.760828 104.353431,18.4782786 C104.735027,18.2147397 105.20813,18.375025 105.428354,18.6870222 C105.636429,18.9911916 105.668703,19.4034603 105.668703,19.4034603 L104.967022,19.4034603 L104.967022,19.9126458 L106.378358,19.9126458 C106.378358,19.9126458 106.340388,20.6316932 105.566944,20.5638515 C105.566944,20.5638515 105.663007,21.1293232 106.378358,20.8318635 C106.378358,20.8318635 106.340388,21.4260374 106.830957,21.7242427 C107.321526,21.4260374 107.285834,20.8318635 107.285834,20.8318635 C108.001184,21.1293232 108.09421,20.5638515 108.09421,20.5638515 C107.321526,20.6316932 107.285834,19.9126458 107.285834,19.9126458 L108.69717,19.9126458 L108.69717,19.4034603 L107.99473,19.4034603 C107.99473,19.4034603 108.027763,18.9911916 108.233939,18.6870222 C108.453404,18.375025 108.927646,18.2147397 109.311141,18.4782786 C109.717417,18.760828 109.585662,19.3110167 109.585662,19.3110167 C109.666538,19.3110167 109.95245,19.1432763 110.11572,18.6404277 Z M100.096263,22.0805979 L100.096263,13.9805979 L113.565651,13.9805979 L113.565651,22.0805979 L100.096263,22.0805979 Z M128.069909,18.6404277 C128.37278,17.6843071 127.409515,16.7617346 126.432587,17.2944037 C125.7498,17.6682786 125.466665,18.5107084 125.466665,19.4034603 L125.094339,19.4034603 C125.104207,19.471302 125.004769,18.7362261 125.152788,18.191256 C125.25754,17.8121626 125.396451,17.4144313 125.62645,16.9358119 C125.831021,16.5194428 125.904271,15.8175422 125.477672,15.2934465 C125.11066,14.836447 124.883696,14.5803632 124.788053,14.4044221 C124.688614,14.5803632 124.469622,14.836447 124.099953,15.2934465 C123.668419,15.8175422 123.742808,16.5194428 123.948138,16.9358119 C124.183071,17.4144313 124.317427,17.8121626 124.424077,18.191256 C124.570578,18.7362261 124.475694,19.471302 124.485183,19.4034603 L124.109441,19.4034603 C124.109441,18.5107084 123.828204,17.6682786 123.140483,17.2944037 C122.163175,16.7617346 121.199531,17.6843071 121.508854,18.6404277 C121.668639,19.1432763 121.957087,19.3110167 122.037928,19.3110167 C122.037928,19.3110167 121.902433,18.760828 122.312333,18.4782786 C122.691491,18.2147397 123.165153,18.375025 123.384525,18.6870222 C123.595168,18.9911916 123.628188,19.4034603 123.628188,19.4034603 L122.926804,19.4034603 L122.926804,19.9126458 L124.333747,19.9126458 C124.333747,19.9126458 124.296932,20.6316932 123.524195,20.5638515 C123.524195,20.5638515 123.619079,21.1293232 124.333747,20.8318635 C124.333747,20.8318635 124.296932,21.4260374 124.788053,21.7242427 C125.276897,21.4260374 125.24122,20.8318635 125.24122,20.8318635 C125.958545,21.1293232 126.053429,20.5638515 126.053429,20.5638515 C125.276897,20.6316932 125.24122,19.9126458 125.24122,19.9126458 L126.654236,19.9126458 L126.654236,19.4034603 L125.950575,19.4034603 C125.950575,19.4034603 125.984354,18.9911916 126.188165,18.6870222 C126.409815,18.375025 126.881959,18.2147397 127.267948,18.4782786 C127.671016,18.760828 127.540455,19.3110167 127.540455,19.3110167 C127.620917,19.3110167 127.907468,19.1432763 128.069909,18.6404277 Z M118.055447,22.0805979 L118.055447,13.9805979 L131.524834,13.9805979 L131.524834,22.0805979 L118.055447,22.0805979 Z" id="Combined-Shape"></path>
                    </g>
                </g>
            </g>
        </g>
    </g>
</svg>