<svg version="1.1" xmlns="http://www.w3.org/2000/svg" xmlns:xlink="http://www.w3.org/1999/xlink" x="0px" y="0px"
	 width="363.425px" height="99.28px" viewBox="0 0 363.425 99.28" enable-background="new 0 0 363.425 99.28" xml:space="preserve">
<g>
	<path fill="#D7DF23" d="M31.428,0c0,0-0.008,0-0.016,0v18.997c0.008,0,0.016-0.012,0.016-0.012c6.889,0,12.491,5.61,12.491,12.498
		l0,0h18.993l0,0C62.912,14.085,48.811,0,31.428,0z"/>
	<path fill="#D7DF23" d="M75.387,0.012h0.016v18.985h-0.016c-6.889,0-12.495,5.61-12.495,12.499l0,0H43.903l0,0
		C43.903,14.108,57.996,0.012,75.387,0.012z"/>
	<path fill="#39B54A" d="M145.407,52.706V33.484l-5.697,9.918h-6.319l-5.689-9.918v19.222h-9.863V12.57h9.697l9.02,17.694
		l9.022-17.694h9.686v40.136H145.407z"/>
	<path fill="#39B54A" d="M188.353,48.539c-2.932,2.936-6.309,4.51-11.209,4.51c-4.908,0-8.293-1.574-11.229-4.51
		c-4.221-4.226-4.055-9.871-4.055-15.907s-0.166-11.658,4.055-15.896c2.936-2.936,6.32-4.498,11.229-4.498
		c4.9,0,8.277,1.562,11.209,4.498c4.232,4.237,4.068,9.859,4.068,15.896S192.585,44.313,188.353,48.539z M181.085,22.772
		c-0.73-0.959-2.135-1.752-3.941-1.752s-3.227,0.793-3.945,1.752c-0.898,1.184-1.467,2.545-1.467,9.859
		c0,7.338,0.568,8.629,1.467,9.812c0.719,0.958,2.139,1.811,3.945,1.811s3.211-0.853,3.941-1.811
		c0.904-1.184,1.469-2.475,1.469-9.812C182.554,25.317,181.989,23.956,181.085,22.772z"/>
	<path fill="#39B54A" d="M216.48,52.706h-17.479V12.57h16.633c8.342,0,12.799,4.675,12.799,11.61c0,4.558-3.156,7.102-4.402,7.942
		c1.641,1.018,4.967,3.101,4.967,8.747C228.998,48.539,223.644,52.706,216.48,52.706z M215.019,21.411h-6.146v6.546h6.146
		c2.707,0,3.543-1.693,3.543-3.267C218.562,23.104,217.726,21.411,215.019,21.411z M215.525,36.81h-6.652v7.055h6.652
		c2.705,0,3.602-1.87,3.602-3.562C219.126,38.621,218.23,36.81,215.525,36.81z"/>
	<path fill="#39B54A" d="M235.582,52.706V12.57h9.867v40.136H235.582z"/>
	<path fill="#39B54A" d="M253.335,52.706V12.57h9.871v31.341h16.848v8.795H253.335z"/>
	<path fill="#39B54A" d="M285.578,52.706V12.57h9.867v40.136H285.578z"/>
	<path fill="#39B54A" d="M320.699,21.364v31.342h-9.871V21.364h-9.867V12.57h29.594v8.794H320.699z"/>
	<path fill="#39B54A" d="M141.431,98.996V82.532l-4.872,8.498h-5.401l-4.876-8.498v16.464h-8.443V64.637h8.305l7.713,15.149
		l7.725-15.149h8.301v34.359H141.431z"/>
	<path fill="#39B54A" d="M178.319,95.434c-2.51,2.497-5.404,3.847-9.604,3.847c-4.197,0-7.094-1.35-9.602-3.847
		c-3.623-3.634-3.48-8.451-3.48-13.611c0-5.173-0.143-10.002,3.48-13.611c2.508-2.51,5.404-3.87,9.602-3.87
		c4.199,0,7.094,1.36,9.604,3.87c3.613,3.609,3.477,8.438,3.477,13.611C181.796,86.982,181.933,91.8,178.319,95.434z
		 M172.095,73.371c-0.625-0.828-1.832-1.503-3.379-1.503c-1.545,0-2.754,0.675-3.377,1.503c-0.773,1.018-1.254,2.178-1.254,8.451
		c0,6.272,0.48,7.386,1.254,8.392c0.623,0.816,1.832,1.538,3.377,1.538c1.547,0,2.754-0.722,3.379-1.538
		c0.771-1.006,1.254-2.119,1.254-8.392C173.349,75.549,172.866,74.389,172.095,73.371z"/>
	<path fill="#39B54A" d="M206.884,98.996l-11.008-17.269v17.269h-8.447V64.637h7.387l11.004,17.28v-17.28h8.449v34.359H206.884z"/>
	<path fill="#39B54A" d="M235.867,72.164v26.832h-8.436V72.164h-8.451v-7.527h25.338v7.527H235.867z"/>
	<path fill="#39B54A" d="M266.404,98.996l-6.076-12.783h-2.85v12.783h-8.434V64.637h13.596c7.621,0,11.732,5.408,11.732,11.055
		c0,4.675-2.904,7.622-5.594,8.972l7.424,14.333H266.404z M262.257,72.211h-4.779v6.948h4.779c2.318,0,3.672-1.692,3.672-3.468
		C265.929,73.903,264.576,72.211,262.257,72.211z"/>
	<path fill="#39B54A" d="M328.644,98.996l-1.586-5.113h-10.572l-1.697,5.113h-8.83l12.5-34.359h6.525l12.498,34.359H328.644z
		 M321.937,77.668l-3.084,9.173h5.98L321.937,77.668z"/>
	<path fill="#39B54A" d="M340.75,98.996V64.637h8.449v26.832h14.227v7.527H340.75z"/>
	<rect y="54.457" fill="#009444" width="18.985" height="44.539"/>
	<path fill="#39B54A" d="M31.413,0C14.101,0.036,0.071,14.05,0,31.354l0,0v0.13l0,0V54.47h18.985V31.483l0,0
		c0-6.876,5.571-12.463,12.428-12.486V0z"/>
	<rect x="87.831" y="54.47" fill="#D7DF23" width="18.985" height="44.526"/>
	<path fill="#8DC63F" d="M75.403,0.012c17.32,0.036,31.342,14.05,31.413,31.354l0,0v0.131l0,0v22.997H87.831V31.496l0,0
		c0-6.865-5.566-12.464-12.428-12.487V0.012z"/>
	<path fill="#8DC63F" d="M62.888,31.472c-0.008-8.817-3.646-16.795-9.493-22.5c-5.831,5.682-9.465,13.611-9.492,22.394h-0.008v0.118
		l0,0V54.47v0.012v44.526h18.993V54.493v-0.012V31.483l0,0V31.472L62.888,31.472z"/>
	<g>
		<path fill="#39B54A" d="M280.291,98.996V64.637h23.367v7.527h-14.912v5.752h12.734v7.516h-12.734v6.037h14.912v7.527H280.291z"/>
		<polygon fill="#39B54A" points="288.939,62.601 291.361,54.729 299.351,54.729 293.736,62.601"/>
	</g>
	<g>
		<path fill="#39B54A" d="M336.093,52.729V12.522h27.332v8.818H345.98v6.711h14.898v8.806H345.98v7.054h17.445v8.818H336.093z"/>
		<polygon fill="#39B54A" points="346.201,10.155 349.035,0.936 358.388,0.936 351.812,10.132"/>
	</g>
</g>
</svg>
