<svg version="1.1" xmlns="http://www.w3.org/2000/svg" xmlns:xlink="http://www.w3.org/1999/xlink" x="0px" y="0px"
	 width="22px" height="22.001px" viewBox="4 4 22 22.001" enable-background="new 4 4 22 22.001" xml:space="preserve">
<path fill="#022312" d="M5.46,26c0.79,0,2.136-0.535,4.72-5.109c1.536-0.701,3.119-1.295,4.738-1.774
	c1.175-0.347,2.35-0.62,3.498-0.812c1.893,1.161,4.092,1.905,5.658,1.905c1.732,0,1.91-0.979,1.924-1.28
	c0.02-0.409-0.135-0.809-0.423-1.1c-0.628-0.658-1.908-0.99-3.804-0.99c-0.944,0-1.987,0.084-3.104,0.252
	c-1.13-0.744-2.062-1.623-2.707-2.548c-0.619-0.892-1.154-1.838-1.6-2.828c1.237-3.62,1.478-5.998,0.716-7.069
	C14.775,4.224,14.329,4,13.785,4c-0.607,0-1.103,0.268-1.435,0.776c-0.986,1.508-0.22,4.656,0.768,6.989
	c-0.46,1.3-1.035,2.7-1.668,4.066C10.8,17.245,10.1,18.636,9.351,20c-1.94,0.918-5.033,2.624-5.327,4.285
	c-0.085,0.48,0.057,0.923,0.41,1.275C4.722,25.85,5.077,26.001,5.46,26L5.46,26z M22.238,18c1.972,0,2.541,0.459,2.669,0.6
	c0.065,0.065,0.1,0.156,0.092,0.248C24.979,18.88,24.805,19,24.311,19c-0.772,0-1.996-0.298-3.311-0.945
	C21.434,18.02,21.846,18,22.238,18z M13.202,5.26C13.291,5.078,13.398,5,13.561,5c0.15,0,0.215,0.066,0.267,0.165
	c0.262,0.492,0.28,2.01-0.34,4.835C12.914,7.7,12.885,5.91,13.202,5.26z M12.412,16.076c0.47-1.01,0.909-2.042,1.296-3.04
	l0.015,0.035L13.748,13c0.363,0.686,0.762,1.34,1.193,1.958c0.533,0.763,1.232,1.493,2.059,2.153l-0.117,0.018l0.051,0.032
	c-0.801,0.17-1.609,0.374-2.417,0.612c-1.188,0.352-2.358,0.762-3.507,1.227l0.036-0.066L11,18.956
	C11.464,18.062,11.936,17.1,12.412,16.076z M5.006,24.641C5.099,24.095,6.063,23.124,8,22c-1.735,2.835-2.543,3-2.706,3
	c-0.054,0-0.116-0.012-0.202-0.102C5,24.803,4.991,24.732,5.006,24.641z"/>
</svg>
